/* XPM */
static char *_374a4f0381e4ca3bdb11b9ada5b82b3[] = {
/* columns rows colors chars-per-pixel */
"16 16 226 2 ",
"   c #24A2DC",
".  c #2FA5DF",
"X  c #2BA8DC",
"o  c #2EAADD",
"O  c #2CACDD",
"+  c #31A8DF",
"@  c #26B7D7",
"#  c #2ABBD7",
"$  c #2CBBD7",
"%  c #2DBDD7",
"&  c #27B3D8",
"*  c #2BB9D8",
"=  c #34B6DB",
"-  c #36B1DD",
";  c #36B3DC",
":  c #33B5DC",
">  c #3FB6DE",
",  c #3EB7DE",
"<  c #3FB6DF",
"1  c #35BADA",
"2  c #34BFD9",
"3  c #3FB9DD",
"4  c #3FBADD",
"5  c #3FBBDD",
"6  c #3FB8DE",
"7  c #3FB9DE",
"8  c #3FB8DF",
"9  c #3FBADE",
"0  c #3FBDDC",
"q  c #3FBCDD",
"w  c #3FBFDC",
"e  c #2A8BE6",
"r  c #318FE7",
"t  c #2F9AE3",
"y  c #289CE1",
"u  c #2D9FE0",
"i  c #3B97E7",
"p  c #339FE2",
"a  c #3999E5",
"s  c #399CE5",
"d  c #399FE4",
"f  c #3F9CE7",
"g  c #3E9FE6",
"h  c #3E92EA",
"j  c #3F93EA",
"k  c #3F96E9",
"l  c #3E99E8",
"z  c #33A0E3",
"x  c #36A7E0",
"c  c #38A1E3",
"v  c #39A5E2",
"b  c #3BA6E2",
"n  c #3AA1E4",
"m  c #3CA2E5",
"M  c #3CAAE1",
"N  c #3FA9E3",
"B  c #3CADE0",
"V  c #3DADE0",
"C  c #3EAFE0",
"Z  c #40B5DF",
"A  c #40B6DF",
"S  c #42B8DF",
"D  c #40BCDD",
"F  c #41BFDC",
"G  c #4489EF",
"H  c #448AEE",
"J  c #448AEF",
"K  c #438FEC",
"L  c #448CED",
"P  c #448EED",
"I  c #448FED",
"U  c #448DEE",
"Y  c #419DE7",
"T  c #429FE7",
"R  c #4392EB",
"E  c #4393EB",
"W  c #4493EB",
"Q  c #4197E9",
"!  c #4395EA",
"~  c #4397EA",
"^  c #4396EB",
"/  c #4496EA",
"(  c #4597EA",
")  c #4390EC",
"_  c #4391EC",
"`  c #4694EC",
"'  c #4298E9",
"]  c #4398E9",
"[  c #419AE8",
"{  c #429BE8",
"}  c #429AE9",
"|  c #429BE9",
" . c #4398EA",
".. c #429CE8",
"X. c #429DE8",
"o. c #429EE8",
"O. c #4584F1",
"+. c #4486F0",
"@. c #4487F0",
"#. c #41A6E3",
"$. c #41A7E3",
"%. c #40A0E7",
"&. c #42A0E7",
"*. c #42A1E7",
"=. c #41A2E6",
"-. c #42A2E6",
";. c #42A3E6",
":. c #45A0E7",
">. c #45A2E7",
",. c #41A5E5",
"<. c #41A6E4",
"1. c #41A6E5",
"2. c #42A6E5",
"3. c #41A4E6",
"4. c #43A5E6",
"5. c #41AAE2",
"6. c #40AAE3",
"7. c #41AAE3",
"8. c #40AEE1",
"9. c #40ACE2",
"0. c #40ADE2",
"q. c #41ACE3",
"w. c #43ADE3",
"e. c #40AEE2",
"r. c #41AEE2",
"t. c #40AFE2",
"y. c #41A8E4",
"u. c #41A9E4",
"i. c #40B1E0",
"p. c #40B0E1",
"a. c #40B1E1",
"s. c #40B2E0",
"d. c #40B3E0",
"f. c #40B2E1",
"g. c #40B4E0",
"h. c #41B4E0",
"j. c #40B6E0",
"k. c #4FBDE1",
"l. c #53B8E3",
"z. c #57BDE3",
"x. c #61B9E6",
"c. c #6FB2EE",
"v. c #6EBEEA",
"b. c #7AB8EF",
"n. c #79BDED",
"m. c #3DCBD7",
"M. c #3DCCD7",
"N. c #3DCED6",
"B. c #3DCED7",
"V. c #3DC1DB",
"C. c #3EC1DB",
"Z. c #3EC3DA",
"A. c #3FC3DA",
"S. c #3EC2DB",
"D. c #3DC5D9",
"F. c #3EC5D9",
"G. c #3EC6D9",
"H. c #3EC5DA",
"J. c #3FC5DA",
"K. c #3DC8D8",
"L. c #3EC8D8",
"P. c #3EC8D9",
"I. c #3EC9D9",
"U. c #3DCBD8",
"Y. c #3CD6D3",
"T. c #3DD0D5",
"R. c #3DD1D5",
"E. c #3CD3D4",
"W. c #3DD0D6",
"Q. c #3DD1D6",
"!. c #3CD4D4",
"~. c #3CD9D2",
"^. c #40C3DB",
"/. c #40C6D9",
"(. c #41C6D9",
"). c #42C6DA",
"_. c #4CC4DE",
"`. c #5AC8E0",
"'. c #5EC9E1",
"]. c #67C1E6",
"[. c #67C7E4",
"{. c #69C4E6",
"}. c #66C9E4",
"|. c #72C2E7",
" X c #70CAE5",
".X c #73CBE7",
"XX c #76CDE7",
"oX c #77CFE6",
"OX c #72C3E9",
"+X c #73C4E9",
"@X c #75C5E9",
"#X c #7AC2EC",
"$X c #7EC5EC",
"%X c #79C9E9",
"&X c #7FCBEB",
"*X c #81C3ED",
"=X c #82C0EE",
"-X c #82C1EF",
";X c #83C2EE",
":X c #80C5ED",
">X c #84C5ED",
",X c #89C3EF",
"<X c #88C5EF",
"1X c #86CDEB",
"2X c #82C9EC",
"3X c #88CDEC",
"4X c #8DCDEE",
"5X c #92CCEF",
"6X c #93CEEF",
"7X c #88D2EB",
"8X c #8ED1EB",
"9X c #8DD4EB",
"0X c #8CD2EC",
"qX c #8ED5EC",
"wX c #90D5EB",
"eX c #92D6EB",
"rX c #93D2EC",
"tX c #97D2EF",
"yX c #96D6ED",
"uX c #94D5EE",
"iX c #9ED5EF",
"pX c #99D8ED",
"aX c #9DDBED",
"sX c #95CCF1",
"dX c #A9D3F3",
"fX c #ABDBF2",
/* pixels */
"p.9.7.<.3.*.o.|  .^ R K L H @.O.",
"d.p.0.u.1.4.*.o.{ ] ( E ) U J +.",
"Z s.t.w.N y m >.:.l e j ` K U G ",
"6 j.f.V M v.#.n g f c.k h W I L ",
"5 8 A o +XfX$Xz t n.dXb.r / R P ",
"0 9 , - %XOXtXb c <X-X,Xi Q ! _ ",
"C.0 4 ; {.1X@X. v *XsX=Xa [ ' ! ",
"Z.C.0 = .XuX&XB x :X5X;Xs Y | ~ ",
"G.Z.V.1 XXqX0XX   2X6X>Xd %.X.} ",
"L.F.A.* oXwX7Xz.l.3X4X#Xp =.&...",
"M.I./.$ `.aX X9X8X|.iXx.u 2.;.T ",
"N.U.K.(.% '.eXpXyXrX].+ q.y.,.-.",
"R.B.U.L.D.# _.}.[.k.O C r.6.y.,.",
"!.Q.N.m.P.).2 @ & : S h.a.e.5.$.",
"Y.E.T.N.m.L.J.^.F D 7 < g.i.8.5.",
"~.Y.E.W.B.U.P.H.S.w q 3 > d.a.0."
};
