/* XPM */
static char *_d8ec6d0946a427dbe0c8a032f286a19[] = {
/* columns rows colors chars-per-pixel */
"32 32 113 2 ",
"   c #0095D6",
".  c #009AD4",
"X  c #1C97DE",
"o  c #159DD9",
"O  c #1C9CDC",
"+  c #229DDE",
"@  c #14A7D5",
"#  c #1AABD6",
"$  c #1DA3DA",
"%  c #1FAFD8",
"&  c #14B1D3",
"*  c #1BB1D5",
"=  c #23A3DC",
"-  c #27ACDB",
";  c #29ADDB",
":  c #34ADDE",
">  c #3DAADC",
",  c #23B6D6",
"<  c #23B8D6",
"1  c #28B8D7",
"2  c #27B4D8",
"3  c #29B3D9",
"4  c #3FB6DF",
"5  c #3FBBDD",
"6  c #1F87E4",
"7  c #1F89E4",
"8  c #238CE4",
"9  c #2E8EE6",
"0  c #308FE6",
"q  c #2294E1",
"w  c #2C94E4",
"e  c #2499E0",
"r  c #3498E5",
"t  c #3D99E7",
"y  c #3390E8",
"u  c #3E96E9",
"i  c #34A0E2",
"p  c #3AA3E3",
"a  c #37A9E0",
"s  c #3EADE1",
"d  c #40B4DF",
"f  c #41BCDD",
"g  c #48BADC",
"h  c #4487EF",
"j  c #448CEE",
"k  c #429EE7",
"l  c #4394EB",
"z  c #429AE9",
"x  c #4485F0",
"c  c #42A3E5",
"v  c #41ACE2",
"b  c #4AAEE4",
"n  c #47A0E8",
"m  c #41B2E1",
"M  c #4DB7E1",
"N  c #49B8E1",
"B  c #54B3E5",
"V  c #5DBAE4",
"C  c #60BBE6",
"Z  c #3DCCD7",
"A  c #3EC4DA",
"S  c #3DC9D8",
"D  c #3CD3D4",
"F  c #3CD9D2",
"G  c #42C3DB",
"H  c #56C8E0",
"J  c #63C2E4",
"K  c #6CC4E6",
"L  c #67CAE4",
"P  c #6BCBE5",
"I  c #6BC0E9",
"U  c #70C7E5",
"Y  c #72CBE6",
"T  c #7AC2EB",
"R  c #76CAE9",
"E  c #7DCDEA",
"W  c #7DD0E9",
"Q  c #82C4EE",
"!  c #83CCEB",
"~  c #8CCCEE",
"^  c #90CCEF",
"/  c #81D1E7",
"(  c #86D1EA",
")  c #8DD4EC",
"_  c #93D4ED",
"`  c #9BD5ED",
"'  c #9ED9EF",
"]  c #8CC4F0",
"[  c #8FC9F0",
"{  c #90C7F0",
"}  c #93C9F1",
"|  c #9FCDF4",
" . c #9ED6F0",
".. c #A4DDEE",
"X. c #A1CEF3",
"o. c #A2D5F2",
"O. c #A5DBF1",
"+. c #ADDBF3",
"@. c #B2DEF3",
"#. c #BADDF6",
"$. c #A9E0EF",
"%. c #AEE1F1",
"&. c #B2E2F2",
"*. c #BBE4F4",
"=. c #BDE9F3",
"-. c #C1DEF7",
";. c #C4E6F6",
":. c #C4EBF5",
">. c #CBEAF7",
",. c #CFEAF8",
"<. c #D0EDF8",
"1. c #DBF1F9",
"2. c #E4F5FA",
/* pixels */
"m v v v v c v c c c c c z z z z z l l l l l l l j j j h h h x x ",
"m s s v v v v c c c c c p n c z z z z l l l l j j j j j h h x x ",
"d m s m v s v c v c c c c z z z z z z z l l l l l j j j j h h x ",
"d m m m v v v s c v c c c c c z z z z l z l l l j l j j j j h h ",
"5 m m s m v v v v c v c c c n c p z z z z z l l l l j j j j j h ",
"4 4 m m s m m s c v c v c c p c z c z z z z l l l l l l j j j h ",
"5 4 4 m m m v v m v + X p c c c c c n t 7 6 u l l l l j j l j j ",
"4 4 4 4 4 m m m a = ^ +.p i c c n c r y | X.0 y l l l l l j l j ",
"5 5 4 4 4 s m m = +.@._ >.p p c c n w #.X.| -.9 z l l l l l l j ",
"f 5 5 4 4 4 m ; K ;.i + +.o.X c v q Q #.9 9 #.] 8 l z l l l j l ",
"A N 5 4 4 4 m - R E ! +.I +.e c c q } Q { } Q } 8 z z l l l l l ",
"5 A 5 5 f f m - K ` K C  .@.o v v e ] { Q Q [ ] 8 z z l l l l j ",
"A 5 5 5 5 5 4 - K *.. ^ >.s a v v e [ } Q Q [ ] q z t z z l l l ",
"A A 5 5 5 5 5 3 U  .m <.s s v v v e ~ ~ Q Q [ [ 8 k k t l z z l ",
"A A 5 A 5 5 5 ; U ) W ! E &.o v v + ~ } Q Q [ [ q z t n z z l l ",
"A A A 5 A 5 5 3 Y ) R ) ( O.$ v v + ~ ~ Q Q [ [ q n n n z z z z ",
"A A A A 5 A 5 3 Y _ Y ) / ' = m v = ~ } Q Q ~ ^ + k k k k z z z ",
"S A A A A 5 A 2 Y ) Y ) ( ' $ m m = ! _ Q ! ~ ^ + c c k k k z z ",
"S S A A A A A 2 P $.L _ K ;.. : :   @.Q ~ T ^ Q + c c c c k k z ",
"S S A A A A A 5 A :.g >.3 *.O.g M ) >.= ;.b #.B r k c c c k k k ",
"Z S S A A A A G & &.L L =.@ ) @.@.` = ..~ B ,.O v c c c c k k k ",
"Z Z Z S S A A G A A 2., / *.U J J I %.o.o 2.C + v c v c c c c k ",
"Z Z Z S S S A S G & P 2.g H ) ) _ ( V > 1.~ o b v v v c p c c k ",
"D Z Z Z S S S Z G G * H =.$.W Y U E ` :.J o d v v v v c v c c c ",
"Z D Z Z S S S S S A G < < L O.&.%.%.Y - - m m s v v s v v c c c ",
"D D D Z Z S S A A A G G A 1 * % % # ; 4 m d m m m v v v v c v c ",
"D D D Z Z Z Z S A S A A A G G A f f f 4 f 4 m m m m v s s v v c ",
"D D D Z D Z Z Z S S S A A A 5 5 5 5 5 5 4 4 4 d m s m v v v v c ",
"F D D D D Z Z Z Z S S A A A A A A 5 5 5 5 4 4 4 4 m m m v v v v ",
"F D D D Z D D Z Z Z S S A A A A 5 A 5 5 5 4 4 4 4 d m s v s v v ",
"F D F D D D Z D Z Z S S A S A A A 5 A 5 5 5 5 4 4 4 d m s v v s ",
"F F F D D D D Z Z Z Z S S S A A A A A 5 5 f 5 5 4 4 d d m m v v "
};
