/* XPM */
static char *_ad85cc50e33460ffc8010c49466dacf[] = {
/* columns rows colors chars-per-pixel */
"64 64 145 2 ",
"   c #047EDF",
".  c #008DD7",
"X  c #008BD9",
"o  c #158EDF",
"O  c #0194D6",
"+  c #019BD4",
"@  c #0B9CD6",
"#  c #0694D8",
"$  c #0C94DA",
"%  c #0B99D8",
"&  c #1594DD",
"*  c #1C95DE",
"=  c #159BDB",
"-  c #1C9BDD",
";  c #249DDF",
":  c #299DDF",
">  c #00A2CF",
",  c #02A3D2",
"<  c #0CA5D5",
"1  c #06A9D2",
"2  c #12A4D7",
"3  c #13A9D5",
"4  c #19ABD6",
"5  c #13A1D8",
"6  c #1CA3DA",
"7  c #14B1D4",
"8  c #1CB3D5",
"9  c #24A4DC",
"0  c #2CA4DF",
"q  c #23ABDA",
"w  c #2CAADD",
"e  c #32A7DF",
"r  c #33ACDE",
"t  c #3BAEDF",
"y  c #23B4D6",
"u  c #29B7D7",
"i  c #23B1D8",
"p  c #2DB5DA",
"a  c #2CB9D8",
"s  c #34B4DC",
"d  c #3FB5DF",
"f  c #32B9D9",
"g  c #3FBBDC",
"h  c #1184E1",
"j  c #158AE1",
"k  c #1D8CE2",
"l  c #1D92E0",
"z  c #248AE4",
"x  c #288EE5",
"c  c #2692E2",
"v  c #2D93E4",
"b  c #2C9FE0",
"n  c #3493E6",
"m  c #3C96E7",
"M  c #3C9AE6",
"N  c #3893E8",
"B  c #3F9AE8",
"V  c #3CA7E2",
"C  c #3EABE2",
"Z  c #3EB1E0",
"A  c #40B4DF",
"S  c #41BBDD",
"D  c #48BCDF",
"F  c #4487EF",
"G  c #448CED",
"H  c #429EE7",
"J  c #4394EB",
"K  c #429AE8",
"L  c #4A9DEA",
"P  c #4484F0",
"I  c #41A4E5",
"U  c #49A4E7",
"Y  c #40ACE2",
"T  c #4AABE5",
"R  c #46A1E8",
"E  c #5CAAEA",
"W  c #40B1E0",
"Q  c #4AB2E2",
"!  c #47BAE0",
"~  c #54B3E5",
"^  c #54BBE3",
"/  c #5BBCE4",
"(  c #63BEE6",
")  c #6CBDE9",
"_  c #70B4ED",
"`  c #73BCEB",
"'  c #3DCCD7",
"]  c #3EC3DA",
"[  c #3DC9D8",
"{  c #3CD3D4",
"}  c #3CD9D2",
"|  c #43C2DC",
" . c #4AC1DE",
".. c #55C3E0",
"X. c #5CC4E3",
"o. c #64C4E5",
"O. c #6BC5E6",
"+. c #65CBE2",
"@. c #6CCAE5",
"#. c #71C6E7",
"$. c #71CBE6",
"%. c #73C3EA",
"&. c #7FC0EE",
"*. c #76CBE8",
"=. c #79CCE8",
"-. c #84BEF0",
";. c #84CCEB",
":. c #8ACDED",
">. c #86D3E9",
",. c #8CD3EC",
"<. c #93D4ED",
"1. c #90D8EB",
"2. c #9EDCEE",
"3. c #92CDF0",
"4. c #9FD5F0",
"5. c #A1DDEE",
"6. c #A2CEF4",
"7. c #A5D5F2",
"8. c #AAD5F4",
"9. c #A5D8F1",
"0. c #ACDDF2",
"q. c #B1D5F6",
"w. c #B6DEF4",
"e. c #A6E1EF",
"r. c #AAE1EF",
"t. c #ADE0F1",
"y. c #B3E2F2",
"u. c #BBE3F4",
"i. c #C2E5F6",
"p. c #C5EAF5",
"a. c #CCECF7",
"s. c #CCE5F8",
"d. c #CEE9F8",
"f. c #D1EDF7",
"g. c #D0E7FA",
"h. c #D3EDF8",
"j. c #DCEEFA",
"k. c #DCF1F9",
"l. c #E0EFFB",
"z. c #E2F2FB",
"x. c #EBF6FC",
"c. c #EDF8FC",
"v. c #F1F7FD",
"b. c #F4FAFD",
"n. c #FFFFFF",
/* pixels */
"W Z Y Y Y Y Y Y Y Y Y I I Y I I I I I I I H I H H H H H K K K K K J K J J J J J J J J J G G G G G G G G G F F F F F F P P P P P ",
"Y W W W W Y C Y Y Y I Y Y I Y I V I I I I I H H H H H K H K H K K K J K K J K J J J J G J J J G G G G G P G F G F F F F P P P P ",
"W W W C W Y Y Y Y I Y I Y I I I I I I I I H I I I H H H K H K K K K K J K J J J J J J J G G J G G G G G G G G G G F F F P P P P ",
"W W W W C W Y W Y Y Y Y Y Y I Y I Y I I I I I H H H I H H H H H K K K K J K J K J J J J J J G J J J G G G G P G F F G F P P P P ",
"Z W W W W Y C Y Y Y Y Y I Y I I Y I I I I I I I I H H H H H K K K K K K K K J J J J J J J J J G G J G G G G G G G F G F P F P P ",
"A W W Z W Z W Y Y C Y Y Y Y Y Y I Y I I I I I I I I I H I H H H H K K K K K K K J K J J J J J J m G G G G G G G F G F F F F F F ",
"d A W W W W Z W Y W Y Y Y Y Y I I I Y I I I I I I V H H H H H H K H H K B J K J J J L J J G J J G J G J J G G G G G G F F F F P ",
"d d A W W W W Y W Y Y Y Y Y Y Y Y Y I I Y I I I I H H I I H H H H K K H K K K K K K J J J J J J J G J G G G J G G G G F G F F F ",
"Z Z Z W W Z W W Z Y Y Y Y C Y Y I Y I I I Y I I I I H I H H I H H H H K K K K K K K J J J J J J J J G J J G J G G G G G F F F F ",
"S S Z S W W W Z W W W C W Y Y Y Y Y Y Y Y I I I I I V H V I H H H H H H H K K K K K m K K J J J J J J G G J G G G G G G G G G F ",
"d Z Z W A W W S W Y W W W Y Y Y C Y Y Y I Y I I I I I I H I I H H H H H H K H K K K K J J J J K J J J J J J J G G G G G G G F G ",
"g g g Z d A W W W Z Y W W Y W C Y Y I Y Y I I Y I I I I I I I H I H H H H K H K K K K K K K J J J J J J J G G J G G G J G G F G ",
"W ! d d Z S W Z W W W Z Y Y Y Y Y Y Y Y I Y I I I I I I I I I I V H H H H H H K K K K J K K J J J J J J G J J G J G G G G G G F ",
"] Z g d Z S d W Z W W W Z W C W W Y Y Y Y Y C Y Y I I Y I I I I I H I H H H H H K m m J J K B J J J J J J J J G J J G J G G G G ",
"g g d d d Z S Z W W W W Y W W Y Y C Y V - ; : * 0 I Y I I I I I I I H H H H R n z x x z n L J J J K J J J J G J G J G G G G G G ",
"d d g g g d Z d Z S W W Z W W W C Q 0 0 :.h.x.w.~ - I I I I I I I H I H I R x M 4.j.l.6.m z L K K L J J J J J J J G J G J G G G ",
"g g g g Z S g Z Z S W Z W W W W W e 0 g.n.x.d.n.n.%.* I I I I I I I I I I c R v.n.l.j.n.b.L z J K K J K J J J G J J G J G J G G ",
"g g d g g Z W g Z S d W S W W W Y 6 i.n.;.= $ V k.n.~ b Y Y Y I I I I I M v x.n.E h   E n.v.x N K J K J K J J J J J J G J G J G ",
"g g g | g Z g Z d Z d d Z W W W w ^ n.0.O e Y $ C n.u.l I I I I I I I I c &.n.`   H H   _ n.-.z K J K J K J J J J G J J J G G G ",
"g g g Z S ] Z | g d d W d W W S 6 %.n.( O 4.x.C = x.k.9 V Y Y I I I I I * 8.n.H j s.s.k m n.q.k K K K K J K J J J J J J J J G J ",
"] g g g g Z S g Z d d g d d S W 9 O.n.( O y.n.T = z.j.l Y I I I I I I I l 7.n.U k x.x.k H n.8.k K K K K J B J K J J J J G J G J ",
"g g g g g g g d S g d d d W W W 9 O.n.) O w.n.C - z.j.b C Y Y Y Y I Y I l 7.n.U j j.j.k R n.8.z H K K K K J B J J J J J J J J G ",
"] g g g g g g d g d d d d d Z S 9 O.n.O.O u.n.Q # k.j.; V Y Y I I Y I I c 7.n.U j j.l.k R n.8.z H L K K K K J J K J J J J J J G ",
"] g ] g g | g g d g g S d d W S q O.n.O.% <.f.= 9 v.z.b C Y Y I Y I I Y * 7.n.T j j.j.k H n.8.k H H K K K K K K K J J J J J J J ",
"] g g ] ] g g g g g d d d d d W q O.n.O.9 t # ( n.n.0.; C Y Y Y Y I C Y l 8.n.T o j.z.k I n.8.k H H H K K B K K K J J K J J J J ",
"g ] ] g g g g g g g g g g d d S 6 O.n.O.w 6 O.n.x./ e C Y Y Y Y Y Y T I l 9.n.T j j.l.k I n.8.z H H K K K K J K K K J J J J J J ",
"] ] g ] ] g g g g g d d g d d S q O.n.O.5 s n.z.9 O 6 Q Y W Y C Y Y Y I * 7.n.T & j.k.j R n.8.* H H H H H K K K K J K B K J J J ",
"g ] ] g g ] g g g g g g d S g W q O.n.O.+ :.n./ # <.,.0 Y W Y Y Y I Y I ; 7.n.U o j.l.* R n.8.k I H H H K H K K K K K J J K J J ",
"] ] g ] ] g g ] ] g g g g g d S q @.n.O.+ w.n.d = n.c.9 t C W Y Y Y Y Y * 7.n.T & j.l.k I n.8.k R H H H H H K K K K K J K J J K ",
"] ] ] ] g ] g ] g g g g g g g S 4 @.n.O.+ t.n.A 6 z.k.9 C W Y Y Y Y Y Y - 8.n.T & j.l.* I n.8.l I H I H H K H H K K K K K J J J ",
"] ] ] ] ] g ] g ] g g d g g S S q @.n.@.+ t.n.A 6 z.k.9 Z Y W Y Y Y Y Y - 9.n.T & j.z.* I n.8.l I H H H H H H K H K K K K J K J ",
"] ] ] ] ] ] ] g g ] g ] g g g W q @.n.@.+ r.n.W 6 z.k.q t W W Y Y Y Y Y - 7.n.T & j.j.* I n.8.l I I H I I H H H K H H K K K K K ",
"' ] ] ] ] ] g ] ] g g g g g g S q @.n.@.+ t.n.S 6 z.k.9 C W W C Y Y Y Y - 7.n.T & k.k.& I n.8.* H I H I I H H H H H K K K K K K ",
"] | ' ] ] ] ] ] g ] ] ] ] g g g i @.n.@., t.n.A 4 z.k.q d W A W W W Y Y 6 9.n.T & j.z.* I n.8.* I I I H H H H H H H H H K K K K ",
"[ ] ] ] [ ] ] g ] ] g g g g g | 8 @.n.@., y.n.A 2 x.j.9 d W A Y Z Y Y Y - 7.n.Q & j.l.& T n.8.; I I I I H I H H H H H K H K K J ",
"] [ [ ] ] ] ] ] ] g ] ] g ] g S q @.n.@., 0.n.D 2 k.z.q t A W W W W W W - 0.n.Y - z.j.& T n.9.* I I I I V H I I H H H H H K H K ",
"' ' ] ] ] ] ] ] [ g ] ] g ] g g y X.n.>.> 1.n.^ , p.n.s r A A W W Z Y W 6 g.n.9 0 n.d.$ ~ n.3.* I I I I I I I H H H H H H H K K ",
"' ] ] [ [ ] ] ] ] ] ] g ] ] g ] a  .n.r., @.n.=.+ >.n.o.5 ! A A W A Q 9 r n.i.# T n.7.X ) n.` ; Y I I I I I I H I I H H H K H K ",
"' ] ' ] [ ] [ ] ] ] ] g ] g g ] f a v.k.3 d n.p.< s n.x.q < w r r r 6 % y.n.( . ;.n.) X 7.n.~ b I I I I I I I I H I I H H H H K ",
"' ' ' ' [ [ ] ] ] [ ] ] g ] ] g | 8 y.n.S 1 p.n.d , @.n.b.#.D d d A ( f.n.4.= - x.b.0 - z.x.: V I Y Y I I I I I H I H I H H H H ",
"' ] ] [ [ ] [ ] ] ] ] ] g ] g ] | 8 +.n.1.> ..n.p.< < @.x.n.n.n.n.n.n.n.;.6 O ,.n.:.. ^ n.4.& T Y I I Y I I I I I V V K I K I H ",
"' ' ' [ [ [ ' [ ' ] ] ] ] ] ] ] ] g y c.b.y 1 2.n.2.3 , p o.5.u.u.0.=.d @ O #.n.h.- $ i.n.Y 0 Y Y I Y I I I I I H I H I K I H H ",
"' ' ' ' [ [ ] [ [ ] ] ] ] ] ] g ] | 7 @.n.2.> 4 r.n.a.D 2 + + + + + O @ d 9.n.j.w O ) n.0.& Y Y Y I Y I Y I I I I I I H I H R H ",
"' ' ' ' [ [ [ [ ' | [ ] ] ] ] ] g ] ] 3 p.n.@.1 4 >.n.n.h.5.=.+.o.$.<.p.n.n.0.w O Y n.c.0 r Y Y Y Y I Y Y I Y I I I I I H I H I ",
"' ' ' ' ' [ ' [ [ ] [ [ ] ] ] ] ] ] | a 8 z.n.@.1 > D 2.c.n.n.n.n.n.n.n.y./ = + D b.n.Q - Q C Y Y Y Y I I Y I I I I I I I H B I ",
"{ ' ' ' ' [ ' [ [ [ [ ] [ ] ] [ ] g ] | y a k.n.e.f > 1 i D +.$.*.@.^ r + + q ;.n.n.^ - Q t W Y Y Y Y Y Y I Y I Y I I I I I I I ",
"' ' ' ' ' ' [ [ [ [ [ [ | [ ] ] ] ] ] ] | y y e.n.n.5...p < > > + , < q D :.c.n.d.d - A Y Y A Y Y Y Y Y Y Y Y I I I I I I H H I ",
"{ { { ' ' ' [ ' [ [ [ [ [ [ ] [ ] ] ] ] ] ] ] 7 ..p.n.n.n.a.u.0.5.y.p.c.n.n.z.#.6 0 A A A C Y Y Y Y Y C I Y Y Y I Y I I I V I I ",
"' ' ' { ' ' ' ' ' ' ] ' ] ' ] ] ] ] ] ] ] g | ] 8 8  .1.p.c.n.n.n.n.b.f.9.X.q 4 d Q A W W Y W Y Y W Y Y Y Y Y I Y I Y I I I I I ",
"{ { { ' ' ' ' ' ' ' ' ' ' ] ' [ [ | ] ] [ ] g ] | ] u 7 y a S D D S s q 4 q Z ! d d Z W W Z W W Y C Y Y Y C Y Y Y Y I I I I I I ",
"{ ' ' { ' ' ' ' [ ' ' ] [ [ ] ] ] [ ] ] ] ] ] ] ] g S | g f f a p s f S d S d d d d A W A W Z W Y W Y C Y Y Y C I Y I Y I I Y I ",
"{ { { { { { ' { ' ' [ ' [ [ [ [ [ ] [ ] ] ] ] g ] ] ] g ] g g g g S g g d d d d d d d A Z W W W W Y W W Y Y Y Y Y Y Y I Y Y I I ",
"{ { { { { { ' ' ' ' ' ' [ [ [ [ ] [ ] [ [ ] ] ] ] g ] g ] g g g g S g d g d d d d d d d W W W W Z W W Y Y Y Y Y Y I Y I I Y I I ",
"{ { { { { ' { ' { ' ' ' ' [ ' [ [ [ [ | | ] ] ] ] ] g ] g ] g g g g g g g d g S d d d d d A W d W W W C Y W Y Y Y Y Y Y Y I Y I ",
"{ { { { { { ' { ' { ' ' ' ' ' [ [ [ [ [ ' ] ] ] ] ] ] ] ] ] g ] g g g g g g g d d d d d Z d A W W W W W Z W Y W Y Y I Y Y I I Y ",
"{ } { { { { { ' { ' ' ' ' [ ' ' [ [ [ [ ] [ ] ] ] ] ] g ] g ] g ] ] S g g g d g g g d d d d d S W Z W W W Y Y C Y Y Y Y Y Y Y I ",
"} } } { { { { { ' { ' ' ' ' ' ' [ [ [ [ ] [ ] [ ] ] ] ] ] ] ] g g g g g g g d g S d d d d d d d W Z W W Z W Y W Y Y Y Y C Y Y I ",
"{ } { { { { { { ' { { ' { ' ' ' ' [ ' [ [ [ [ ] ] ] ] ] ] g ] ] g ] ] g g g g g g g d g d d d d d S W W W W W Z Z Y Y Y Y Y Y Y ",
"} { } { { { { { { ' { { ' ' ' ' ' ' [ ' [ [ ] [ ] ] ] ] ] g ] g ] ] g g ] g g g g d d S d d d d d d W W W W W W W Y W W Y Y I Y ",
"} } { } } { { { { { { ' { { ' ' ' ' ' [ [ [ ' ] [ [ ] ] ] [ ] g ] g g ] g g g g g g d g S d d d S Z Z Z W W W W W Y C Y Y Y Y Y ",
"} } } { { } { { { { { { ' ' ' ' ' { ' [ ' [ [ [ ] ] ] ] ] ] ] ] ] ] ] g ] ] g g S g g g g d d d Z Z W d S W W W W W Y W Y W Y Y ",
"} } } } } { { { { { { ' { { ' { ' ' ' ' ' [ [ [ ' [ [ [ [ ] ] ] ] g ] ] g g g g g g g d d g g d d g S Z Z W W Z W W Z Y Y C Y Y ",
"} } } { { } { } { { { { { { { | ' ' ' ' ' [ ' [ [ [ ] [ ] [ ] ] ] ] ] g ] g ] g g g g g g g d g ! g Z g Z S W W W W W W W Y Y C ",
"} } } } } } } { { { { { { { { } { ' ' ' ' ' ' [ [ [ [ [ [ ] ] ] ] ] ] ] g ] ] g ] g g g g g g d g Z S Z Z Z W W W Z W C W W W Y "
};
